<svg version="1.1" id="Layer_1" xmlns="http://www.w3.org/2000/svg" xmlns:xlink="http://www.w3.org/1999/xlink" x="0px" y="0px"
	 width="100%" viewBox="0 0 1080 1080" enable-background="new 0 0 1080 1080" xml:space="preserve">
<path fill="#FFFFFF" opacity="1.000000" stroke="none" 
	d="
M606.000000,1081.000000 
	C405.523071,1081.000000 205.546158,1080.989014 5.569278,1081.085693 
	C1.948640,1081.087402 0.895105,1080.478638 0.896328,1076.570312 
	C1.007971,719.611511 1.009654,362.652679 0.882437,5.693905 
	C0.880950,1.521537 1.867388,0.896055 5.805073,0.897276 
	C362.597198,1.007974 719.389343,1.007770 1076.181519,0.899194 
	C1080.091187,0.898004 1081.120850,1.479384 1081.119263,5.680458 
	C1080.990112,362.472565 1080.989380,719.264709 1081.122803,1076.056885 
	C1081.124512,1080.438965 1080.024902,1081.103760 1075.944092,1081.100708 
	C919.462830,1080.981812 762.981384,1081.000000 606.000000,1081.000000 
z"/>
<path fill="#895A9E" opacity="1.000000" stroke="none" 
	d="
M678.859253,897.839478 
	C669.662903,900.126892 660.646545,900.980164 651.756531,902.539551 
	C640.622009,904.492737 629.391174,905.833435 618.328735,908.445251 
	C611.536743,910.048767 604.454834,911.017761 597.470947,912.069824 
	C569.778992,916.241272 541.848389,915.051453 514.010498,915.487976 
	C492.872528,915.819397 471.703033,915.412476 450.574921,914.612122 
	C437.945618,914.133728 425.574341,911.548279 413.432526,907.564453 
	C404.430542,904.610779 394.998291,902.843323 385.656311,901.086670 
	C376.598724,899.383423 368.004303,896.114136 359.084839,894.006165 
	C337.115845,888.814148 316.828033,878.844299 295.611359,871.506226 
	C286.899414,868.493164 278.878357,863.382263 271.001434,858.053406 
	C261.834747,851.851807 252.091171,846.295044 243.222900,839.680420 
	C229.528732,829.466309 215.141052,820.106262 203.107315,807.698303 
	C192.265991,796.519714 180.954224,785.775330 169.500259,775.218872 
	C156.817368,763.529968 149.942230,748.359741 143.222656,733.068665 
	C135.604263,715.732361 132.002472,697.092896 126.241699,679.148865 
	C124.648132,674.185181 123.650993,668.975464 123.908119,663.528137 
	C124.300568,655.214111 124.047890,646.867676 124.003510,638.535339 
	C123.903633,619.788879 127.535324,601.771790 133.144928,583.895203 
	C135.950897,574.953186 139.040619,566.045227 140.664383,556.549500 
	C142.338837,546.757324 147.126358,537.228516 151.869110,528.282898 
	C163.785492,505.806488 174.311722,482.555237 188.334564,461.233063 
	C190.057037,458.614014 188.277573,457.637848 186.951172,456.304321 
	C178.375656,447.682251 169.637253,439.218506 161.191742,430.471619 
	C139.922256,408.443237 121.528404,384.306305 106.580330,357.466309 
	C95.859642,338.216858 87.222038,318.219086 80.701714,297.208618 
	C77.797974,287.851929 76.478333,278.575043 79.019188,268.977570 
	C79.103951,268.657379 79.073975,268.269958 79.246925,268.015381 
	C84.259109,260.636749 87.910172,252.704651 96.516296,247.674545 
	C111.000435,239.208878 126.475815,233.440689 142.017532,227.715164 
	C148.463257,225.340561 155.604599,225.265564 162.415039,224.149506 
	C187.378540,220.058563 212.606384,220.152252 237.795273,220.932205 
	C244.125534,221.128220 250.452271,222.922775 256.686646,224.383698 
	C266.097290,226.588943 275.586151,228.574982 284.670349,231.981003 
	C290.550720,234.185791 296.964172,235.097427 301.559479,240.280029 
	C303.683472,242.675446 306.547791,241.257050 308.518158,239.093506 
	C315.851135,231.041565 324.463654,224.652100 333.449768,218.529877 
	C345.918427,210.035004 359.329834,203.546814 373.229736,198.003479 
	C403.327057,186.000595 434.779327,179.186661 466.635681,173.864883 
	C476.421234,172.230179 486.284515,171.821411 496.056702,170.621841 
	C506.160400,169.381607 516.302856,167.885635 526.403198,166.555664 
	C538.058533,165.020950 549.956970,164.622482 561.766479,165.417358 
	C578.024414,166.511673 594.281860,167.693436 610.500854,169.242096 
	C616.022705,169.769348 621.537292,171.167068 626.853088,172.817993 
	C631.461243,174.249207 636.209412,175.053009 640.860168,175.563904 
	C651.160767,176.695419 660.650757,179.907654 670.054260,184.027420 
	C677.479797,187.280670 685.252197,189.763855 692.932251,192.409805 
	C706.934082,197.233749 720.461853,203.121246 733.787537,209.581345 
	C749.708557,217.299606 763.979858,227.455490 778.037109,238.028427 
	C781.453430,240.597992 781.433350,242.287949 777.943604,244.643738 
	C768.035583,251.332336 758.731445,258.831665 749.360596,266.243042 
	C746.593201,268.431793 745.057434,271.011902 747.439453,273.818115 
	C749.916077,276.735748 752.482910,274.433594 754.790710,272.685242 
	C771.423279,260.084625 787.463928,246.632614 806.014465,236.773117 
	C819.158203,229.787231 833.376038,225.753799 847.690369,222.160385 
	C867.633484,217.154022 887.990662,215.758102 908.509705,215.697754 
	C933.701660,215.623627 958.572876,218.042618 983.079529,223.973282 
	C990.558350,225.783203 991.759644,227.875977 990.444824,235.556915 
	C988.710266,245.689850 988.671021,256.072388 986.169800,266.098816 
	C982.433838,281.075500 979.728760,296.425842 974.588501,310.908569 
	C966.777222,332.916901 957.412598,354.354065 947.224121,375.453430 
	C940.033447,390.344910 932.289490,404.728333 922.061096,417.678497 
	C916.920593,424.186798 911.375427,430.383881 905.480103,436.268494 
	C899.465088,442.272614 899.233337,444.274933 903.016968,451.534515 
	C913.156250,470.988373 922.959961,490.733215 929.819214,511.486420 
	C936.478149,531.633789 943.387146,551.909790 946.081360,573.207764 
	C946.619446,577.461365 948.009705,581.613159 949.085205,585.791748 
	C951.898682,596.723450 951.295654,607.879822 951.161377,618.979675 
	C951.062683,627.137756 952.718323,635.178284 952.215515,643.368042 
	C951.568359,653.911194 949.784302,664.239075 947.779846,674.588074 
	C946.317627,682.137878 944.976501,689.702087 942.757385,697.061401 
	C939.795898,706.882996 935.948364,716.593933 929.486877,724.430176 
	C921.660583,733.921509 914.540466,743.952881 906.527771,753.321411 
	C897.673401,763.673950 889.147461,774.315674 879.001526,783.392090 
	C866.031799,794.994629 853.083801,806.620972 839.387390,817.426514 
	C827.437988,826.853882 815.175659,835.851013 803.035339,845.003418 
	C778.671936,863.370911 751.664917,876.623962 722.309509,885.099854 
	C711.074097,888.343933 699.973816,892.053528 688.785156,895.462952 
	C685.667542,896.413025 682.454102,897.048584 678.859253,897.839478 
z"/>
<path fill="#FEFEFE" opacity="1.000000" stroke="none" 
	d="
M438.407990,728.287476 
	C425.008942,713.536255 419.558380,695.761475 418.626465,676.789673 
	C418.178223,667.664795 420.570068,658.338074 422.176270,649.190552 
	C424.154694,637.923279 426.723175,626.805908 432.200684,616.532837 
	C433.761139,613.606201 435.670990,610.948975 437.328796,608.115051 
	C447.405426,590.889465 455.509888,572.714905 463.535004,554.492920 
	C465.297516,550.491089 469.802094,548.356079 475.494781,550.354126 
	C479.821930,551.872925 484.276459,552.177979 488.536987,552.784485 
	C498.764343,554.240417 508.920532,557.071960 519.373657,556.289062 
	C523.999756,555.942688 528.051697,558.571228 532.627869,558.107056 
	C549.257385,556.420227 566.124817,556.458313 582.106628,550.382812 
	C588.253052,548.046265 589.353088,548.909485 591.686157,554.497986 
	C596.277161,565.494812 602.467834,575.654236 610.165222,584.638977 
	C624.877869,601.812134 633.952087,621.759521 638.518433,643.475098 
	C643.732422,668.270569 640.554260,692.090881 627.151123,714.440002 
	C621.598633,723.698486 614.120117,730.537231 606.180847,737.739014 
	C603.246704,738.916077 603.202759,737.033264 603.472900,735.367432 
	C605.389648,723.548828 604.862610,711.434692 607.638062,699.741272 
	C609.018005,693.927551 607.231873,688.904602 604.749329,683.928650 
	C603.904785,682.235901 602.546875,680.592468 600.535522,680.919434 
	C594.716064,681.865662 588.460327,681.773804 584.269348,687.152588 
	C581.203491,691.087280 578.053223,694.967773 574.879333,698.805664 
	C570.469910,704.137634 564.486694,706.560852 557.187500,705.856323 
	C556.595215,705.157410 556.416077,704.678955 556.399658,703.772461 
	C556.685913,702.428528 557.469116,701.685303 557.596680,700.280701 
	C559.240540,690.681030 562.762512,682.072937 566.188965,673.438110 
	C571.133972,660.976257 568.275879,655.757141 554.880005,654.113037 
	C544.065369,652.785706 533.337402,650.015320 522.232239,652.257202 
	C514.894714,653.738464 507.571869,655.244507 500.551270,657.786255 
	C493.959747,660.172668 490.642670,668.018188 493.390045,674.750122 
	C495.830902,680.730896 498.525604,686.630798 502.040070,692.118652 
	C504.637146,696.174011 507.134369,700.338257 507.120422,705.814575 
	C506.107361,709.447510 503.735779,709.235046 501.507568,708.111023 
	C495.128052,704.892822 487.979980,703.499756 481.894287,699.555725 
	C478.663879,697.462219 474.981934,696.356567 471.023773,696.392517 
	C463.357880,696.462097 459.000397,701.071289 459.489227,708.776611 
	C459.678223,711.756287 460.118835,714.719910 460.437225,717.686646 
	C461.381226,726.482422 458.092834,734.760498 457.638306,743.368164 
	C457.555267,744.940125 456.683075,745.805725 454.638489,745.203186 
	C449.281189,739.809753 444.258575,734.648621 439.127075,729.163818 
	C438.859222,728.739136 438.700226,728.637939 438.407990,728.287476 
z"/>
<path fill="#FEFDFE" opacity="1.000000" stroke="none" 
	d="
M739.886841,549.102844 
	C735.367188,541.592651 732.096863,533.823242 727.175842,526.876221 
	C720.777100,517.842957 711.738525,512.152832 703.230286,505.707642 
	C695.967041,500.205658 687.098572,499.602509 678.647095,497.671478 
	C669.056274,495.480133 659.283630,494.367065 649.658569,492.524872 
	C644.990601,491.631470 640.790100,491.065033 636.120483,492.068939 
	C632.505249,492.846191 629.343872,490.387756 626.534485,488.444916 
	C620.715576,484.420715 616.322937,478.775726 613.044678,472.715668 
	C607.980225,463.353607 607.927612,454.348114 615.169617,445.043854 
	C622.535767,435.580048 629.700134,426.203552 639.677063,419.358429 
	C651.865906,410.995789 665.176941,406.621307 679.865662,410.300842 
	C693.335205,413.674896 707.070984,415.850616 720.193848,420.928253 
	C733.795593,426.191132 746.862976,432.220612 757.634094,442.005188 
	C774.561218,457.381958 789.458618,474.417328 800.126648,495.037506 
	C810.071167,514.259216 818.364014,534.109436 825.441162,554.485779 
	C827.040771,559.091370 825.936401,564.328308 826.685059,569.311523 
	C829.394409,587.347168 825.918335,604.705750 818.890930,621.270386 
	C816.068604,627.923035 812.269958,634.594971 806.814697,639.335266 
	C802.189392,643.354370 796.130859,645.857971 790.464661,648.516724 
	C779.582825,653.622803 768.216553,657.307983 756.513611,660.236450 
	C750.863464,661.650208 744.853149,661.829651 739.509766,664.529297 
	C738.310608,665.135132 736.798218,665.285034 735.722046,664.341736 
	C734.418640,663.199158 735.481018,662.118958 736.023499,660.862732 
	C739.548889,652.699219 741.202515,644.018677 743.184082,635.390198 
	C744.567871,629.364563 747.419556,623.674683 748.394592,617.465576 
	C749.232727,612.127747 751.607727,607.031555 751.092834,601.490967 
	C750.804077,598.383667 753.020386,595.992188 752.957214,592.832214 
	C752.761047,583.018494 750.555115,573.814880 746.934753,564.687927 
	C744.860962,559.459595 742.898010,554.266174 739.886841,549.102844 
z"/>
<path fill="#FEFEFE" opacity="1.000000" stroke="none" 
	d="
M250.714996,553.683716 
	C249.684402,534.969421 257.903381,520.167358 268.187622,506.093109 
	C274.322662,497.697205 280.314331,489.195892 286.324951,480.709747 
	C296.708679,466.049622 308.187775,452.593445 323.992401,443.282715 
	C327.440063,441.251648 330.702118,438.520844 333.965057,435.997162 
	C341.334259,430.297607 350.507629,428.841583 358.912109,425.576202 
	C370.831085,420.945374 383.103943,419.187286 395.939911,419.735535 
	C409.802338,420.327637 423.092194,423.481445 433.634552,432.089264 
	C444.529572,440.985016 452.734802,452.806488 456.902893,466.591614 
	C459.447632,475.007721 456.543671,480.193481 448.526154,484.840393 
	C446.395447,486.075317 444.404785,487.549713 442.296661,488.826385 
	C439.321777,490.627838 436.264374,491.210907 432.604767,491.327209 
	C426.115021,491.533417 419.609650,493.009460 413.230072,494.473694 
	C405.250122,496.305267 397.292145,498.356018 389.503937,500.868011 
	C379.792267,504.000427 369.926788,507.909790 362.543274,514.673218 
	C356.305389,520.387207 350.244080,526.771729 344.926453,533.531311 
	C338.713745,541.428772 332.562256,549.495605 328.828857,558.979065 
	C325.837433,566.577759 322.583618,574.016479 321.755066,582.417786 
	C321.232788,587.713684 319.481445,593.001465 318.928528,598.370667 
	C317.757050,609.746277 321.088715,620.476013 325.953766,630.353760 
	C331.120148,640.843384 335.171631,651.855591 340.981018,662.027222 
	C341.222412,662.449829 341.211945,663.015686 341.450836,663.440491 
	C345.072113,669.878845 344.397217,670.875305 336.876556,671.217224 
	C331.863037,671.445129 327.014435,670.618713 322.124207,669.832214 
	C315.499664,668.766663 308.842743,668.886414 302.179596,666.774292 
	C295.920258,664.790161 290.826569,661.299805 286.282928,657.447998 
	C275.096252,647.964722 266.253601,636.411926 260.154785,622.882019 
	C251.462646,603.598999 247.454575,583.512329 249.020096,562.351196 
	C249.230576,559.506165 251.355469,557.121582 250.714996,553.683716 
z"/>
<path fill="#383335" opacity="1.000000" stroke="none" 
	d="
M159.852020,380.105469 
	C145.677139,360.140594 134.359146,338.971771 125.614304,316.545013 
	C121.920761,307.072693 119.325302,297.033630 119.892426,286.544525 
	C120.185143,281.130615 122.218117,277.208954 127.301346,274.626984 
	C137.939789,269.223297 149.217773,266.294830 160.985336,265.027679 
	C174.466614,263.575958 187.939835,261.372192 201.452637,261.060974 
	C218.534317,260.667542 235.404709,263.835541 252.066772,267.554810 
	C261.906342,269.751160 271.980377,271.117310 281.375153,275.063110 
	C283.823700,276.091522 286.366821,277.003174 288.614349,278.380035 
	C293.950562,281.649078 295.266205,290.756378 290.676270,294.862396 
	C272.796295,310.857391 261.252289,331.445221 248.634354,351.355164 
	C238.498962,367.347839 230.705261,384.583221 221.046524,400.817841 
	C217.191299,407.297821 214.840073,414.671387 211.789871,421.631927 
	C210.063370,425.571747 207.828873,425.785767 204.456131,423.143860 
	C188.191498,410.403473 173.298965,396.266510 159.852020,380.105469 
z"/>
<path fill="#383335" opacity="1.000000" stroke="none" 
	d="
M905.976379,381.924347 
	C900.358276,388.569550 894.235413,394.147095 887.313171,398.845947 
	C880.933411,403.176666 871.899231,402.031158 867.559387,395.703613 
	C848.089722,367.316742 824.549622,342.516144 800.098877,318.498230 
	C795.713074,314.190033 791.544312,309.644226 786.169922,306.461731 
	C782.877869,304.512238 782.853882,302.366272 785.210999,299.217834 
	C793.351685,288.344543 805.128967,282.310303 816.294983,275.565155 
	C827.611023,268.729340 839.773743,263.479462 851.958069,258.352264 
	C860.109924,254.921936 868.819336,253.740265 877.421448,252.286850 
	C892.994812,249.655548 908.683228,248.581787 924.515686,248.988602 
	C931.519043,249.168549 937.810791,250.935928 944.074890,253.736450 
	C946.351196,254.754105 946.931152,256.031769 946.968567,258.262329 
	C947.188782,271.386505 947.055176,284.546448 944.666626,297.446045 
	C939.994568,322.677795 931.506653,346.532776 916.759644,367.808563 
	C913.457275,372.572968 909.693481,377.017517 905.976379,381.924347 
z"/>
<path fill="#F5F1F2" opacity="1.000000" stroke="none" 
	d="
M454.354279,745.285156 
	C455.094482,744.869446 456.470337,745.114624 456.462585,744.237427 
	C456.373810,734.184692 460.603394,724.497620 458.970032,714.330872 
	C458.839111,713.516113 458.640198,712.711914 458.465515,711.904358 
	C455.838440,699.759766 464.355103,691.674072 476.193176,695.757141 
	C484.763062,698.712952 492.886383,702.960205 501.221649,706.602295 
	C503.079742,707.414124 505.194794,709.291016 506.502136,705.336792 
	C508.495148,705.454163 509.238281,707.007080 509.845856,708.543945 
	C511.336395,712.314514 514.040955,713.883240 518.045288,713.635071 
	C526.326416,713.122009 534.629944,714.360291 542.935913,712.572144 
	C548.267334,711.424377 552.619324,709.349182 556.313843,704.989136 
	C560.480713,706.111084 571.403015,702.249756 573.657715,698.446167 
	C576.059265,694.394836 579.660522,691.350037 582.129578,687.402222 
	C586.536560,680.355835 594.261963,680.567566 601.056519,679.240051 
	C604.126282,678.640381 605.352600,682.224792 606.812134,684.668640 
	C611.445435,692.427002 608.708618,700.419556 607.703003,708.327515 
	C606.909485,714.567688 605.524719,720.800049 606.117371,727.080933 
	C606.469910,730.817749 603.413818,734.138794 605.623779,737.932495 
	C602.945862,742.568115 598.237610,745.551758 594.769653,750.099976 
	C594.748474,751.612366 593.902771,752.183105 593.041016,752.686401 
	C582.840393,758.643799 572.489014,764.058228 560.836365,766.968201 
	C546.388977,770.576172 531.885620,773.450623 516.989014,772.291931 
	C496.191498,770.674438 476.213989,766.117188 459.044739,753.250000 
	C458.640930,752.947388 458.340424,752.546753 458.147522,751.737915 
	C458.477600,748.408264 455.521637,747.620850 454.354279,745.285156 
z"/>
<path fill="#3A3437" opacity="1.000000" stroke="none" 
	d="
M693.928223,562.972168 
	C695.571106,577.131714 691.581177,589.646423 684.664978,601.055115 
	C680.977234,607.138306 675.348450,611.970032 667.253174,611.980652 
	C657.748901,611.993103 651.185608,607.417603 647.175110,599.030029 
	C636.310181,576.307434 637.521606,553.575928 647.163330,530.810181 
	C650.717834,522.417480 656.401489,516.030518 665.641113,515.333679 
	C675.234924,514.610168 681.218445,521.196106 685.367981,529.011414 
	C690.899780,539.430115 693.134949,550.818481 693.928223,562.972168 
z"/>
<path fill="#3A3437" opacity="1.000000" stroke="none" 
	d="
M380.007202,598.918152 
	C370.877747,578.359314 369.985260,557.838257 377.921234,537.132629 
	C379.817200,532.185852 383.194244,528.071411 386.445618,523.810730 
	C393.634460,514.390320 411.993103,516.037354 418.057373,527.165527 
	C422.499817,535.317627 423.778748,544.314880 425.766724,553.153564 
	C427.514069,560.922485 428.998413,568.695801 426.860992,576.604980 
	C423.589417,588.711060 421.019714,600.905457 409.651886,609.110901 
	C401.819275,614.764587 387.914032,611.092346 383.300720,604.344482 
	C382.177948,602.702087 381.210754,600.953430 380.007202,598.918152 
z"/>
<path fill="#3A3538" opacity="1.000000" stroke="none" 
	d="
M457.996216,751.706848 
	C468.094543,757.681885 478.130798,763.316833 489.696075,766.415161 
	C505.668121,770.694031 521.727356,771.717651 538.005859,770.196045 
	C550.745728,769.005127 562.877869,764.985840 574.993347,761.069641 
	C581.988892,758.808350 586.942627,752.820557 594.337646,750.538757 
	C596.608337,752.104919 597.430847,753.896423 596.147888,756.529602 
	C584.934875,779.543274 568.289429,796.575623 542.759521,802.544067 
	C535.448425,804.253235 527.452698,803.596252 519.664917,801.076172 
	C510.756531,798.193481 501.568939,796.069702 493.111694,791.989990 
	C480.944214,786.120483 469.344177,779.307922 461.446991,767.825195 
	C458.217773,763.129883 455.426056,758.162048 457.996216,751.706848 
z"/>
<path fill="#F5F1F2" opacity="1.000000" stroke="none" 
	d="
M438.289795,728.249268 
	C438.522919,728.123596 438.718567,728.276367 438.939941,728.668335 
	C438.699982,728.864502 438.462189,728.737915 438.289795,728.249268 
z"/>
<path fill="#3A3637" opacity="1.000000" stroke="none" 
	d="
M556.698730,704.583374 
	C553.526306,712.984192 546.073181,713.576599 539.148438,714.480896 
	C530.924377,715.554749 522.606323,714.577881 514.328857,714.568604 
	C512.002625,714.565979 510.673523,713.259094 509.756165,711.397034 
	C508.808563,709.473694 508.006165,707.478699 506.899841,705.227417 
	C504.906555,697.378296 499.759735,691.466003 496.724640,684.523071 
	C495.401978,681.497375 493.745819,678.619080 492.368256,675.615540 
	C488.676483,667.566284 492.329651,659.690796 500.752472,656.480225 
	C520.220825,649.059204 540.043518,649.548035 559.995422,653.637146 
	C568.108704,655.299927 571.973450,662.827637 568.640869,670.473328 
	C564.530762,679.902832 561.389893,689.646667 558.258789,699.755737 
	C559.225830,701.211914 557.929260,701.687012 557.436035,702.728760 
	C557.047852,703.423340 556.866333,703.833618 556.698730,704.583374 
z"/>
<path fill="#F5F1F2" opacity="1.000000" stroke="none" 
	d="
M557.597412,702.907227 
	C556.927612,702.074890 557.275757,701.277893 558.033203,700.313538 
	C558.886353,701.095581 559.118042,702.033081 557.597412,702.907227 
z"/>
<path fill="#F4F4F4" opacity="1.000000" stroke="none" 
	d="
M676.361084,537.594727 
	C680.101501,543.843689 679.582275,550.374329 679.129761,556.795349 
	C678.906128,559.968201 677.080078,562.798218 673.503723,562.611572 
	C669.867188,562.421692 668.767334,559.741150 668.929565,556.220764 
	C669.172424,550.952087 669.478271,545.687317 667.023376,540.640686 
	C665.427795,537.360596 663.909180,533.064453 668.408630,531.176941 
	C673.478760,529.049988 674.697998,533.763367 676.361084,537.594727 
z"/>
<path fill="#F1F1F1" opacity="1.000000" stroke="none" 
	d="
M412.484406,545.317993 
	C414.333588,549.656738 413.974060,553.466858 411.895874,557.187073 
	C410.617981,559.474609 408.776642,560.823608 406.171692,559.889954 
	C403.805267,559.041809 402.036499,557.048889 402.543091,554.523743 
	C403.734009,548.587769 401.198792,543.466309 399.614502,538.117554 
	C398.821411,535.439880 397.334045,532.559326 400.957794,530.874451 
	C404.585907,529.187500 406.977631,530.897705 408.509521,534.242676 
	C410.091431,537.696838 411.976959,541.041016 412.484406,545.317993 
z"/>
</svg>